# File created by Blade
# Date/Time:  Mon Nov 18 17:26:10 2013
# Frame Rate: 100.000 fps
#------------------------------------------------------
:FULLY-SPECIFIED
:DEGREES
57
root -40.586982 -2.236815 41.933365 6.940161 -0.993988 25.131423
Spine 16.369609 -0.373608 1.346743
Spine1 5.898308 -0.152172 3.458670
Spine2 -23.236970 0.680743 -0.214543
NeckDummy 0.006085 0.486714 1.049239 12.897817 -0.395054 -0.268283
Neck 5.350523 -10.071952 39.107402
Head 0.172398 -0.154335 -0.378775 3.347699 0.704343 0.766369
LeftShoulderDummy -0.024361 0.476886 1.062332 12.927614 -0.500672 -0.113087
LeftShoulder 3.524944 -6.325765 16.596820
LeftArm 9.072518 36.851956 26.341260
LeftForeArm 56.005775
LeftForeArmRoll 14.136570
LeftHand -32.302767 -16.089283 1.478659
LeftHandThumb1 15.849770 3.590150
LeftHandIndex1 -2.075784 42.741972
LeftHandPinky1 -1.398724 61.691391
RightShoulderDummy 0.007333 0.487190 1.031847 12.909043 0.398963 0.292271
RightShoulder 11.117394 2.846965 10.805248
RightArm -13.402388 64.711625 21.014707
RightForeArm 94.239910
RightForeArmRoll 27.861172
RightHand -45.643810 -24.388326 5.723017
RightHandThumb1 13.378505 7.932716
RightHandIndex1 2.496695 43.923385
RightHandPinky1 9.621824 66.850426
LeftUpLeg -5.109891 15.330638 -31.509981
LeftLeg 53.947521
LeftFoot 0.079355 -1.006184 -1.788597 -19.032818 12.478835 -16.964086
LeftToeBase -5.252700
RightUpLeg -7.035862 16.383092 -24.596786
RightLeg 44.286182
RightFoot -0.511023 0.629576 0.568104 -14.859639 14.883933 -19.776830
RightToeBase -1.463844
58
root -40.838821 -2.310179 41.940544 7.143586 -1.180442 24.655749
Spine 16.469194 -0.220171 1.378915
Spine1 5.914053 -0.096791 3.606631
Spine2 -23.281016 0.535629 -0.145354
NeckDummy -0.000812 0.484485 1.053409 12.861045 -0.469407 -0.105826
Neck 5.520453 -10.524039 39.757339
Head 0.145805 -0.139151 -0.358792 3.065659 0.420001 0.668689
LeftShoulderDummy -0.028431 0.477950 1.067729 12.889628 -0.568227 0.045587
LeftShoulder 3.494950 -6.802096 16.723757
LeftArm 8.927407 36.794073 25.299817
LeftForeArm 55.504764
LeftForeArmRoll 14.677173
LeftHand -32.498474 -16.281411 1.790476
LeftHandThumb1 15.575004 3.821987
LeftHandIndex1 -2.191897 42.531747
LeftHandPinky1 -1.048531 61.499369
RightShoulderDummy 0.000997 0.481404 1.034115 12.872143 0.473890 0.122662
RightShoulder 10.916702 2.927909 10.851450
RightArm -12.331312 64.268990 21.769692
RightForeArm 94.291518
RightForeArmRoll 27.778756
RightHand -45.572395 -23.916017 5.568205
RightHandThumb1 13.101094 7.630748
RightHandIndex1 2.252405 42.797739
RightHandPinky1 9.455150 66.281198
LeftUpLeg -4.586036 16.534660 -32.885395
LeftLeg 55.374152
LeftFoot 0.097942 -1.006110 -1.797330 -19.823462 11.145402 -15.414317
LeftToeBase -6.504130
RightUpLeg -7.594399 15.596972 -25.456769
RightLeg 44.960109
RightFoot -0.539752 0.637661 0.589721 -14.832704 14.988484 -20.252879
RightToeBase -1.114814
59
root -41.083400 -2.379250 41.940805 7.338209 -1.418914 24.130778
Spine 16.600474 -0.015116 1.404456
Spine1 5.954628 -0.026474 3.751804
Spine2 -23.309828 0.352599 -0.078361
NeckDummy -0.009662 0.478572 1.053154 12.932227 -0.558419 0.061319
Neck 5.621846 -11.101158 40.442393
Head 0.120266 -0.120419 -0.337348 2.695638 0.179202 0.577004
LeftShoulderDummy -0.034511 0.474791 1.068909 12.960456 -0.648902 0.192726
LeftShoulder 3.647094 -7.234924 16.902927
LeftArm 9.147621 36.724579 24.473699
LeftForeArm 55.059291
LeftForeArmRoll 14.929223
LeftHand -32.417445 -16.341847 2.070100
LeftHandThumb1 15.493682 3.679354
LeftHandIndex1 -2.317308 41.841267
LeftHandPinky1 -1.182465 61.271934
RightShoulderDummy -0.006992 0.472356 1.031866 12.943223 0.561171 -0.038151
RightShoulder 10.683222 2.971310 10.898511
RightArm -10.877734 63.796798 22.890921
RightForeArm 94.228011
RightForeArmRoll 27.221776
RightHand -45.462868 -23.863053 5.733345
RightHandThumb1 13.497501 7.739029
RightHandIndex1 1.752666 42.369979
RightHandPinky1 9.211732 66.087610
LeftUpLeg -4.180753 17.809672 -34.307168
LeftLeg 56.836190
LeftFoot 0.111339 -0.993990 -1.803166 -20.506225 9.724715 -13.720518
LeftToeBase -7.755997
RightUpLeg -8.483602 14.711583 -26.479420
RightLeg 45.856935
RightFoot -0.526039 0.628738 0.617052 -14.779835 15.313910 -20.404906
RightToeBase -0.739804
60
root -41.314136 -2.445872 41.930170 7.463968 -1.615253 23.686073
Spine 16.839374 0.160333 1.370240
Spine1 6.018735 0.056830 3.765336
Spine2 -23.297791 0.128325 -0.000255
NeckDummy -0.020960 0.478681 1.049433 13.025751 -0.662830 0.213259
Neck 5.567191 -11.655953 41.153770
Head 0.087891 -0.107143 -0.311309 2.320429 -0.135147 0.444737
LeftShoulderDummy -0.043764 0.478507 1.066918 13.052689 -0.749354 0.348212
LeftShoulder 3.846248 -7.665311 17.161036
LeftArm 9.492808 36.655633 23.740585
LeftForeArm 54.556889
LeftForeArmRoll 15.065955
LeftHand -32.643926 -16.769053 2.602718
LeftHandThumb1 15.389420 3.884558
LeftHandIndex1 -1.979857 41.827464
LeftHandPinky1 -0.817751 61.118029
RightShoulderDummy -0.017254 0.469665 1.025397 13.036159 0.664962 -0.190757
RightShoulder 10.367658 2.912185 10.888536
RightArm -9.488144 63.165546 23.950500
RightForeArm 94.148435
RightForeArmRoll 26.415757
RightHand -45.464773 -23.730712 5.717939
RightHandThumb1 13.813491 7.601404
RightHandIndex1 1.325397 40.872790
RightHandPinky1 9.168610 65.582564
LeftUpLeg -3.945480 18.991192 -35.734928
LeftLeg 58.314908
LeftFoot 0.122018 -0.976489 -1.805509 -21.151523 8.249612 -11.940564
LeftToeBase -8.916602
RightUpLeg -9.262396 13.923662 -27.547092
RightLeg 46.977581
RightFoot -0.493621 0.674836 0.702321 -15.647621 15.210497 -20.686303
RightToeBase -0.183917
61
root -41.528525 -2.506573 41.913613 7.546958 -1.733319 23.320844
Spine 17.101931 0.269285 1.309941
Spine1 6.111592 0.125479 3.691937
Spine2 -23.271992 -0.013268 0.090641
NeckDummy -0.027977 0.475393 1.043777 13.127857 -0.768919 0.392775
Neck 5.548356 -12.232075 41.861695
Head 0.054238 -0.101496 -0.284099 2.021091 -0.475185 0.278665
LeftShoulderDummy -0.049804 0.479487 1.062991 13.152371 -0.852884 0.521568
LeftShoulder 4.096452 -8.054390 17.318953
LeftArm 9.859622 36.756171 22.938546
LeftForeArm 54.146921
LeftForeArmRoll 15.179970
LeftHand -32.825644 -17.225849 2.987347
LeftHandThumb1 15.778736 3.295211
LeftHandIndex1 -2.153903 41.581287
LeftHandPinky1 -0.864743 61.372082
RightShoulderDummy -0.023351 0.463412 1.017231 13.136909 0.769925 -0.369031
RightShoulder 10.095628 2.966188 10.830782
RightArm -7.921616 62.519813 25.112739
RightForeArm 94.013561
RightForeArmRoll 25.067819
RightHand -45.537238 -24.083703 5.980300
RightHandThumb1 14.401415 7.906431
RightHandIndex1 1.210904 40.059695
RightHandPinky1 9.189882 65.553673
LeftUpLeg -3.887795 19.999567 -37.185691
LeftLeg 59.794312
LeftFoot 0.131123 -0.970544 -1.808099 -21.625078 6.815051 -10.113999
LeftToeBase -9.944139
RightUpLeg -9.603100 13.381114 -28.533893
RightLeg 48.061091
RightFoot -0.496830 0.673297 0.650635 -15.080957 15.558846 -20.585532
RightToeBase -0.619359
62
root -41.719123 -2.566982 41.902290 7.518235 -1.719028 23.114701
Spine 17.408871 0.287617 1.208603
Spine1 6.222260 0.175476 3.498451
Spine2 -23.182776 -0.103574 0.166674
NeckDummy -0.032867 0.470186 1.033031 13.226728 -0.856976 0.544137
Neck 5.558953 -12.723136 42.473321
Head 0.021475 -0.098762 -0.253988 1.636898 -0.809917 0.174196
LeftShoulderDummy -0.053640 0.478037 1.053452 13.248646 -0.936812 0.662513
LeftShoulder 4.477560 -8.269523 17.504609
LeftArm 10.491085 37.028728 22.463376
LeftForeArm 53.635881
LeftForeArmRoll 15.350678
LeftHand -32.897314 -17.720525 3.131573
LeftHandThumb1 15.434758 3.778305
LeftHandIndex1 -2.085311 41.367506
LeftHandPinky1 -0.810206 61.029275
RightShoulderDummy -0.027688 0.456352 1.004722 13.233898 0.855710 -0.514130
RightShoulder 9.843012 3.013250 10.719164
RightArm -6.454833 61.885370 26.063223
RightForeArm 93.879738
RightForeArmRoll 23.301377
RightHand -45.751027 -24.780642 6.478862
RightHandThumb1 14.538686 8.289390
RightHandIndex1 1.160879 39.544291
RightHandPinky1 9.176963 66.184664
LeftUpLeg -3.931965 20.786659 -38.489241
LeftLeg 61.141049
LeftFoot 0.136632 -0.953285 -1.812694 -21.907712 5.385376 -8.321927
LeftToeBase -10.671634
RightUpLeg -9.631060 13.188982 -29.290879
RightLeg 48.955311
RightFoot -0.513515 0.714947 0.712083 -15.995891 14.966433 -21.045200
RightToeBase 0.354876
63
root -41.883470 -2.622380 41.890342 7.449422 -1.555056 23.073546
Spine 17.716816 0.261171 1.055297
Spine1 6.343179 0.194124 3.169748
Spine2 -23.066115 -0.204727 0.205311
NeckDummy -0.038631 0.458309 1.019099 13.320944 -0.919832 0.656207
Neck 5.587361 -13.128491 43.036406
Head -0.000929 -0.094166 -0.220504 1.218894 -1.052080 0.095592
LeftShoulderDummy -0.058615 0.469726 1.040353 13.339440 -0.996876 0.772563
LeftShoulder 4.903163 -8.440906 17.733472
LeftArm 10.914069 37.210518 22.071173
LeftForeArm 53.074728
LeftForeArmRoll 16.040875
LeftHand -32.956278 -18.165020 3.474003
LeftHandThumb1 15.532483 3.765074
LeftHandIndex1 -2.074582 41.313828
LeftHandPinky1 -0.887329 60.902212
RightShoulderDummy -0.032511 0.443111 0.989629 13.326868 0.915608 -0.625502
RightShoulder 9.586173 3.123810 10.533768
RightArm -5.060179 61.411088 26.823327
RightForeArm 93.748712
RightForeArmRoll 21.517284
RightHand -45.944706 -25.525844 7.036599
RightHandThumb1 14.799491 8.528172
RightHandIndex1 0.823967 39.201807
RightHandPinky1 9.066358 66.631672
LeftUpLeg -4.070872 21.292869 -39.728690
LeftLeg 62.379653
LeftFoot 0.147643 -0.933936 -1.821186 -22.087497 3.997958 -6.642627
LeftToeBase -10.937757
RightUpLeg -9.301293 13.356455 -29.894130
RightLeg 49.773214
RightFoot -0.495924 0.731582 0.702751 -15.549517 14.526542 -20.973739
RightToeBase -0.433653
64
root -42.029611 -2.672017 41.881745 7.323892 -1.314651 23.171484
Spine 18.053213 0.182786 0.896867
Spine1 6.485793 0.209944 2.792645
Spine2 -22.997938 -0.265840 0.247012
NeckDummy -0.041735 0.447689 1.008167 13.418307 -0.976308 0.751396
Neck 5.623679 -13.407125 43.410362
Head -0.035617 -0.092858 -0.194215 0.913454 -1.410914 -0.055567
LeftShoulderDummy -0.061596 0.461957 1.029990 13.434127 -1.053533 0.870597
LeftShoulder 5.294843 -8.567207 17.907812
LeftArm 11.186234 37.481505 21.742327
LeftForeArm 52.433443
LeftForeArmRoll 16.530941
LeftHand -33.088919 -18.657245 4.001759
LeftHandThumb1 15.608010 3.668372
LeftHandIndex1 -2.134962 41.131089
LeftHandPinky1 -0.684309 60.722438
RightShoulderDummy -0.034255 0.431341 0.977577 13.422654 0.968395 -0.715978
RightShoulder 9.458392 3.220797 10.389932
RightArm -3.706552 60.891314 27.409085
RightForeArm 93.672781
RightForeArmRoll 20.247936
RightHand -46.101452 -26.275150 7.500602
RightHandThumb1 15.664755 8.962605
RightHandIndex1 0.933467 39.058343
RightHandPinky1 9.294256 66.933516
LeftUpLeg -4.216289 21.656165 -40.838798
LeftLeg 63.452088
LeftFoot 0.155142 -0.894264 -1.830767 -21.896999 2.600554 -5.059193
LeftToeBase -10.810353
RightUpLeg -8.777991 13.733588 -30.285937
RightLeg 50.419020
RightFoot -0.491398 0.724466 0.732303 -16.397411 14.051438 -21.160946
RightToeBase 0.154161
